<?xml version="1.0" encoding="UTF-8" standalone="no"?>
<svg
   width="3085"
   height="3221"
   viewBox="0 0 3085 3221"
   version="1.1"
   id="campus-running-network"
   xml:space="preserve"
   sodipodi:docname="campus-running-network.svg"
   inkscape:version="1.4.4 (dcaf3e7, 2026-05-05)"
   xmlns:inkscape="http://www.inkscape.org/namespaces/inkscape"
   xmlns:sodipodi="http://sodipodi.sourceforge.net/DTD/sodipodi-0.dtd"
   xmlns="http://www.w3.org/2000/svg"
   xmlns:svg="http://www.w3.org/2000/svg"><defs
   id="defs1" />
  <sodipodi:namedview
   id="namedview1"
   pagecolor="#ffffff"
   bordercolor="#000000"
   borderopacity="0.25"
   inkscape:showpageshadow="2"
   inkscape:pageopacity="0.0"
   inkscape:pagecheckerboard="0"
   inkscape:deskcolor="#d1d1d1"
   inkscape:zoom="0.39309178"
   inkscape:cx="1521.2732"
   inkscape:cy="1812.5538"
   inkscape:window-maximized="1"
   inkscape:current-layer="roads_manual"
   inkscape:window-width="2560"
   inkscape:window-height="1494"
   inkscape:window-x="3829"
   inkscape:window-y="539" />

  <g
   id="base_map"
   inkscape:groupmode="layer"
   inkscape:label="base_map"
   inkscape:locked="true">
    <image
   id="campus-guide-base"
   x="0"
   y="0"
   width="3085"
   height="3221"
   href="../guides/campus-guide.jpg"
   preserveAspectRatio="none" />
  </g>

  <g
   id="roads_manual"
   inkscape:groupmode="layer"
   inkscape:label="roads_manual"
   style="fill:none;stroke:#ff0000;stroke-width:2;stroke-linecap:round;stroke-linejoin:round"><path
     style="fill:none;stroke:#ff0000;stroke-width:7.55906"
     d="m 1380.5,1542.5 121.5,-4 v 0 0"
     id="path2" /><path
     style="fill:none;stroke:#ff0000;stroke-width:7.55906"
     d="M 1502,1538.5 1343,1380"
     id="path3" /><path
     style="fill:none;stroke:#ff0000;stroke-width:7.55906"
     d="m 1502,1538.5 -49,-207"
     id="path4" /><path
     style="fill:none;stroke:#ff0000;stroke-width:7.55906"
     d="m 1502,1538.5 61,-22"
     id="path5" /><path
     style="fill:none;stroke:#ff0000;stroke-width:7.55906"
     d="m 1502,1538.5 -233,174"
     id="path6" /><path
     style="fill:none;stroke:#ff0000;stroke-width:7.55906"
     d="M 1506.2432,1536.9697 1428,1747"
     id="path7" /><path
     style="fill:none;stroke:#ff0000;stroke-width:7.55906"
     d="m 1587,1624 -24,-107.5"
     id="path8" /><path
     style="fill:none;stroke:#ff0000;stroke-width:7.55906"
     d="m 1587,1624 -159,123"
     id="path9" /><path
     style="fill:none;stroke:#ff0000;stroke-width:7.55906"
     d="m 1587,1624 37,38"
     id="path10" /><path
     style="fill:none;stroke:#ff0000;stroke-width:7.55906"
     d="m 1624,1662 -57,80.5"
     id="path11" /><path
     style="fill:none;stroke:#ff0000;stroke-width:7.55906"
     d="m 1624,1662 84.5,14.5"
     id="path12" /><path
     style="fill:none;stroke:#ff0000;stroke-width:7.55906"
     d="m 1708.5,1676.5 -31,186"
     id="path13" /><path
     style="fill:none;stroke:#ff0000;stroke-width:7.55906"
     d="m 1708.5,1676.5 28,151"
     id="path14" /><path
     style="fill:none;stroke:#ff0000;stroke-width:7.55906"
     d="m 1708.5,1676.5 74.5,98"
     id="path15" /><path
     style="fill:none;stroke:#ff0000;stroke-width:7.55906"
     d="m 1708.5,1676.5 122.5,-119"
     id="path16" /><path
     style="fill:none;stroke:#ff0000;stroke-width:7.55906"
     d="m 1617,1434 -54,82.5"
     id="path17" /><path
     style="fill:none;stroke:#ff0000;stroke-width:7.55906"
     d="m 1617,1434 152,-47.5"
     id="path18" /><path
     style="fill:none;stroke:#ff0000;stroke-width:7.55906"
     d="m 1617,1434 42,-118"
     id="path19" /><path
     style="fill:none;stroke:#ff0000;stroke-width:7.55906"
     d="m 1659,1316 110,70.5"
     id="path20" /><path
     style="fill:none;stroke:#ff0000;stroke-width:7.55906"
     d="m 1659,1316 38.5,-93.5"
     id="path21" /><path
     style="fill:none;stroke:#ff0000;stroke-width:7.55906"
     d="m 1453,1331.5 206,-15.5 v 0 0"
     id="path22" /><path
     style="fill:none;stroke:#ff0000;stroke-width:7.55906"
     d="M 1453,1331.5 1343,1380"
     id="path23" /><path
     style="fill:none;stroke:#ff0000;stroke-width:7.55906"
     d="m 1343,1380 -68.5,100.5"
     id="path24" /><path
     style="fill:none;stroke:#ff0000;stroke-width:7.55906"
     d="m 1274.5,1480.5 106,62"
     id="path25" /><path
     style="fill:none;stroke:#ff0000;stroke-width:7.55906"
     d="m 1380.5,1542.5 -134,52.5"
     id="path26" /><path
     style="fill:none;stroke:#ff0000;stroke-width:7.55906"
     d="M 1303.5,1777.5 1428,1747"
     id="path30" /><path
     style="fill:none;stroke:#ff0000;stroke-width:7.55906"
     d="m 1428,1747 -82,79.5"
     id="path31" /><path
     style="fill:none;stroke:#ff0000;stroke-width:7.55906"
     d="m 1428,1747 -28,115.5"
     id="path32" /><path
     style="fill:none;stroke:#ff0000;stroke-width:7.55906"
     d="m 1567,1742.5 -167,120 v 0"
     id="path33" /><path
     style="fill:none;stroke:#ff0000;stroke-width:7.55906"
     d="m 1567,1742.5 -39,169"
     id="path34" /><path
     style="fill:none;stroke:#ff0000;stroke-width:7.55906"
     d="m 1528,1911.5 149.5,-49 v 0"
     id="path35" /><path
     style="fill:none;stroke:#ff0000;stroke-width:7.55906"
     d="m 1677.5,1862.5 59,-35"
     id="path36" /><path
     style="fill:none;stroke:#ff0000;stroke-width:7.55906"
     d="m 1736.5,1827.5 46.5,-53"
     id="path37" /><path
     style="fill:none;stroke:#ff0000;stroke-width:7.55906"
     d="m 1783,1774.5 48,-217"
     id="path38" /><path
     style="fill:none;stroke:#ff0000;stroke-width:7.55906"
     d="m 1528,1911.5 -128,-49"
     id="path39" /><path
     style="fill:none;stroke:#ff0000;stroke-width:7.55906"
     d="m 1400,1862.5 -54,-36"
     id="path40" /><path
     style="fill:none;stroke:#ff0000;stroke-width:7.55906"
     d="m 1831,1557.5 -62,-171"
     id="path42" /><path
     style="fill:none;stroke:#ff0000;stroke-width:7.55906"
     d="m 1831,1557.5 131,-9.5"
     id="path43" /><path
     style="fill:none;stroke:#ff0000;stroke-width:7.55906"
     d="m 1769,1386.5 93,-63.5"
     id="path44" /><path
     style="fill:none;stroke:#ff0000;stroke-width:7.55906"
     d="m 1453,1331.5 -36.5,-121"
     id="path45" /><path
     style="fill:none;stroke:#ff0000;stroke-width:7.55906"
     d="m 1343,1380 -97.5,-79"
     id="path46" /><path
     style="fill:none;stroke:#ff0000;stroke-width:7.55906"
     d="m 1245.5,1301 171,-90.5 281,12 164.5,100.5"
     id="path47" /><path
     style="fill:none;stroke:#0eff00;stroke-width:7.55906;stroke-opacity:1"
     d="m 1862,1323 100,225"
     id="path48" /><path
     style="fill:none;stroke:#ff0000;stroke-width:7.55906"
     d="m 1862,1323 85.5,0.5"
     id="path49" /><path
     style="fill:none;stroke:#0eff00;stroke-width:7.55906;stroke-opacity:1"
     d="M 1947.5,1323.5 V 1210"
     id="path50" /><path
     style="fill:none;stroke:#0eff00;stroke-width:7.55906;stroke-opacity:1"
     d="M 2054.2731,1212.1213 2221,1217 l 100.5,89.5 31.5,125 -31,107"
     id="path51"
     sodipodi:nodetypes="ccccc" /><path
     style="fill:none;stroke:#0eff00;stroke-width:7.55906;stroke-opacity:1"
     d="m 1962,1548 360,-9.5 v 0"
     id="path52" /><path
     style="fill:none;stroke:#0eff00;stroke-width:7.55906;stroke-opacity:1"
     d="m 1697.5,1222.5 250,-12.5"
     id="path53" /><path
     style="fill:none;stroke:#ff0000;stroke-width:7.55906"
     d="m 1947.5,1210 2,-130.5"
     id="path54" /><path
     style="fill:none;stroke:#ff0000;stroke-width:7.55906"
     d="M 1949.5,1079.5 2059,1081"
     id="path55" /><path
     style="fill:none;stroke:#0eff00;stroke-width:7.55906;stroke-opacity:1"
     d="m 2059,1081 -9.8045,-134.89113"
     id="path56" /><path
     style="fill:none;stroke:#0eff00;stroke-width:7.55906;stroke-opacity:1"
     d="m 1947.5,1210 106.7731,2.1213"
     id="path57" /><path
     style="fill:none;stroke:#0eff00;stroke-width:7.55906;stroke-opacity:1"
     d="M 2054.2731,1212.1213 2059,1081"
     id="path58" /><path
     style="fill:none;stroke:#ff0000;stroke-width:7.55906"
     d="m 1492.7024,912.16775 95.4594,-2.12132"
     id="path60" /><path
     style="fill:none;stroke:#0eff00;stroke-width:7.55906;stroke-opacity:1"
     d="m 1588.1618,910.04643 h 172.5341 l 101.8234,49.49747 186.6762,-13.43503"
     id="path62" /><path
     style="fill:none;stroke:#0eff00;stroke-width:7.55906;stroke-opacity:1"
     d="m 1588.1618,910.04643 0.7071,274.35747 L 1697.5,1222.5 v 0"
     id="path63" /><path
     style="fill:none;stroke:#ff0000;stroke-width:7.55906"
     d="m 1492.7024,912.16775 v 0 l 2.1213,274.35745 L 1416.5,1210.5"
     id="path64" /><path
     style="fill:none;stroke:#ff0000;stroke-width:7.55906"
     d="M 1137.7348,1207.0313 1416.5,1210.5"
     id="path65" /><path
     style="fill:none;stroke:#ff0000;stroke-width:7.55906"
     d="M 1136.3206,1393.7075 1245.5,1301"
     id="path66" /><path
     style="fill:none;stroke:#ff0000;stroke-width:7.55906"
     d="m 1136.3206,1393.7075 1.4142,-186.6762"
     id="path67" /><path
     style="fill:none;stroke:#ff0000;stroke-width:7.55906"
     d="M 1136.3206,1393.7075 H 891.66165"
     id="path68" /><path
     style="fill:none;stroke:#0eff00;stroke-width:7.55906;stroke-opacity:1"
     d="m 2142,1543.25 15,384.75 v 0"
     id="path69" /><path
     style="fill:none;stroke:#ff0000;stroke-width:7.55906"
     d="m 2157,1928 192,-33 -27,-356.5"
     id="path70" /><path
     style="fill:none;stroke:#ff0000;stroke-width:7.55906"
     d="m 2169,2129 6,214"
     id="path71" /><path
     style="fill:none;stroke:#0eff00;stroke-width:7.55906;stroke-opacity:1"
     d="m 2157,1928 12,201"
     id="path72" /><path
     style="fill:none;stroke:#0eff00;stroke-width:7.55906;stroke-opacity:1"
     d="m 2169,2129 -178,15 -282,91"
     id="path73" /><path
     style="fill:none;stroke:#ff0000;stroke-width:7.55906"
     d="m 1709,2235 -31.5,-372.5"
     id="path74" /><path
     style="fill:none;stroke:#0eff00;stroke-width:7.55906;stroke-opacity:1"
     d="m 1361.1806,2316.4818 346.4823,2.8284"
     id="path75" /><path
     style="fill:none;stroke:#ff0000;stroke-width:7.55906"
     d="M 1319.4613,2089.5005 1400,1862.5"
     id="path76" /><path
     style="fill:none;stroke:#0eff00;stroke-width:7.55906;stroke-opacity:1"
     d="m 1319.4613,2089.5005 43.1335,48.0833 -1.4142,178.898"
     id="path77" /><path
     style="fill:none;stroke:#0eff00;stroke-width:7.55906;stroke-opacity:1"
     d="m 984.99975,2102.2285 334.46155,-12.728"
     id="path78" /><path
     style="fill:none;stroke:#ff0000;stroke-width:7.55906"
     d="m 987.82817,2399.2133 h 162.63453 l 0.7071,179.6051"
     id="path79" /><path
     style="fill:none;stroke:#ff0000;stroke-width:7.55906"
     d="m 975.80736,2300.9255 9.19239,-198.697"
     id="path80" /><path
     style="fill:none;stroke:#ff0000;stroke-width:7.55906"
     d="m 975.80736,2300.9255 12.02081,98.2878"
     id="path81" /><path
     style="fill:none;stroke:#ff0000;stroke-width:7.55906"
     d="m 975.80736,2300.9255 -137.17872,-2.1214"
     id="path82" /><path
     style="fill:none;stroke:#ff0000;stroke-width:7.55906"
     d="m 838.62864,2298.8041 -3.53553,-203.6467 -114.5513,-9.8995"
     id="path83" /><path
     style="fill:none;stroke:#ff0000;stroke-width:7.55906"
     d="M 720.54181,2085.2579 719.8347,1982.0203"
     id="path84" /><path
     style="fill:none;stroke:#ff0000;stroke-width:7.55906"
     d="m 719.8347,1982.0203 214.25336,2.1213"
     id="path85" /><path
     style="fill:none;stroke:#0eff00;stroke-width:7.55906;stroke-opacity:1"
     d="m 934.08806,1984.1416 0.70711,-222.0315"
     id="path86" /><path
     style="fill:none;stroke:#ff0000;stroke-width:7.55906"
     d="M 934.79517,1762.1101 1269,1712.5"
     id="path87" /><path
     style="fill:none;stroke:#0eff00;stroke-width:7.55906;stroke-opacity:1"
     d="M 1707.6629,2319.3102 1709,2235"
     id="path88" /><path
     style="fill:none;stroke:#0fff01;stroke-width:7.55906;stroke-opacity:1"
     d="m 1354.1095,2583.0611 364.16,-3.5356 v 0 0"
     id="path89" /><path
     style="fill:none;stroke:#0fff01;stroke-width:7.55906;stroke-opacity:1"
     d="m 1718.2695,2579.5255 170.4127,-3.5355"
     id="path90" /><path
     style="fill:none;stroke:#0fff01;stroke-width:7.55906;stroke-opacity:1"
     d="M 1888.6822,2575.99 1931.1086,2353.9585 2175,2343"
     id="path91" /><path
     style="fill:none;stroke:#ff0000;stroke-width:7.55906"
     d="m 1354.1095,2583.0611 7.0711,-266.5793"
     id="path92" /><path
     style="fill:none;stroke:#0fff01;stroke-width:7.55906;stroke-opacity:1"
     d="m 1354.1095,2583.0611 -202.9397,-4.2427"
     id="path93" /><path
     style="fill:none;stroke:#ff0000;stroke-width:7.55906"
     d="m 1354.1095,2583.0611 1.4142,192.333"
     id="path94" /><path
     style="fill:none;stroke:#ff0000;stroke-width:7.55906"
     d="m 1355.5237,2775.3941 361.3316,1.4142"
     id="path95" /><path
     style="fill:none;stroke:#ff0000;stroke-width:7.55906"
     d="m 1716.8553,2776.8083 1.4142,-197.2828"
     id="path96" /><path
     style="fill:none;stroke:#ff0000;stroke-width:7.55906"
     d="m 1716.8553,2776.8083 445.4772,-4.9497"
     id="path97" /><path
     style="fill:none;stroke:#ff0000;stroke-width:7.55906"
     d="m 2162.3325,2771.8586 0.7071,-158.3919"
     id="path98" /><path
     style="fill:none;stroke:#ff0000;stroke-width:7.55906"
     d="M 2163.0396,2613.4667 1888.6822,2575.99"
     id="path99" /><path
     style="fill:none;stroke:#ff0000;stroke-width:7.55906"
     d="M 1355.5237,2775.3941 H 1165.312"
     id="path100" /><path
     style="fill:none;stroke:#0fff01;stroke-width:7.55906;stroke-opacity:1"
     d="m 1165.312,2775.3941 -14.1422,-196.5757"
     id="path101" /><path
     style="fill:none;stroke:#ff0000;stroke-width:7.55906"
     d="M 1151.1698,2578.8184 H 980.05 l 7.77817,-179.6051"
     id="path102" /><path
     style="fill:none;stroke:#ff0000;stroke-width:7.55906"
     d="m 987.82817,2399.2133 -24.74873,38.8909 -173.24116,-2.1213"
     id="path103" /><path
     style="fill:none;stroke:#ff0000;stroke-width:7.55906"
     d="m 789.83828,2435.9829 48.79036,-137.1788"
     id="path104" /><path
     style="fill:none;stroke:#ff0000;stroke-width:7.55906"
     d="m 637.81032,2270.5199 200.81832,28.2842"
     id="path105" /><path
     style="fill:none;stroke:#ff0000;stroke-width:7.55906"
     d="m 642.76006,2411.9412 2.12133,103.9447"
     id="path106" /><path
     style="fill:none;stroke:#ff0000;stroke-width:7.55906"
     d="m 440.52753,2662.257 202.23253,8.4853"
     id="path107" /><path
     style="fill:none;stroke:#ff0000;stroke-width:7.55906"
     d="m 440.52753,2662.257 -9.19239,-158.3919 24.74873,-1.4142 -3.53553,-91.2168"
     id="path108" /><path
     style="fill:none;stroke:#ff0000;stroke-width:7.55906"
     d="m 452.54834,2411.2341 190.21172,0.7071"
     id="path109" /><path
     style="fill:none;stroke:#ff0000;stroke-width:7.55906"
     d="m 642.76006,2411.9412 -4.94974,-141.4213"
     id="path110" /><path
     style="fill:none;stroke:#ff0000;stroke-width:7.55906"
     d="m 637.81032,2270.5199 4.94974,-181.7265 77.78175,-3.5355"
     id="path111" /><path
     style="fill:none;stroke:#ff0000;stroke-width:7.55906"
     d="M 642.76006,2088.7934 448,2083"
     id="path112" /><path
     style="fill:none;stroke:#ff0000;stroke-width:7.55906"
     d="M 448,2083 V 1974"
     id="path113" /><path
     style="fill:none;stroke:#ff0000;stroke-width:7.55906"
     d="m 448,1974 271.8347,8.0203"
     id="path114" /><path
     style="fill:none;stroke:#ff0000;stroke-width:7.55906"
     d="m 642.76006,2411.9412 147.07822,24.0417"
     id="path115" /><path
     style="fill:none;stroke:#ff0000;stroke-width:7.55906"
     d="m 773.57482,2522.6034 16.26346,-86.6205"
     id="path116" /><path
     style="fill:none;stroke:#ff0000;stroke-width:7.55906"
     d="m 773.57482,2522.6034 -128.69343,-6.7175"
     id="path117" /><path
     style="fill:none;stroke:#ff0000;stroke-width:7.55906"
     d="m 644.88139,2515.8859 -2.12133,154.8564"
     id="path118" /><path
     style="fill:none;stroke:#ff0000;stroke-width:7.55906"
     d="m 642.76006,2670.7423 137.53227,6.364"
     id="path119" /><path
     style="fill:none;stroke:#ff0000;stroke-width:7.55906"
     d="m 773.57482,2522.6034 6.71751,154.5029"
     id="path120" /><path
     style="fill:none;stroke:#ff0000;stroke-width:7.55906"
     d="M 780.29233,2677.1063 972.5,2688 l 1,89.5"
     id="path121" /><path
     style="fill:none;stroke:#ff0000;stroke-width:7.55906"
     d="m 973.5,2777.5 191.812,-2.1059"
     id="path122" /><path
     style="fill:none;stroke:#ff0000;stroke-width:7.55906"
     d="m 973.5,2777.5 -308.5,-8"
     id="path123" /><path
     style="fill:none;stroke:#ff0000;stroke-width:7.55906"
     d="m 665,2769.5 -22.23994,-98.7577"
     id="path124" /><path
     style="fill:none;stroke:#ff0000;stroke-width:7.55906"
     d="m 1707.6629,2319.3102 10.6066,260.2153"
     id="path125" /><path
     style="fill:none;stroke:#0eff00;stroke-width:7.55906;stroke-opacity:1"
     d="m 863.44023,1459.7536 -1.79883,119.6225 -61.16035,0.8994 v 186.1793 l 134.31412,-4.3447 v 0"
     id="path126" /><path
     style="fill:none;stroke:#0eff00;stroke-width:7.55906;stroke-opacity:1"
     d="m 891.66165,1393.7075 0.55992,-138.1215 245.51323,-48.5547"
     id="path127" /><path
     style="fill:none;stroke:#ff0000;stroke-width:7.55906"
     d="M 1137.7348,1207.0313 673.66327,1195.3251"
     id="path128" /><path
     style="fill:none;stroke:#0eff00;stroke-width:7.55906;stroke-opacity:1"
     d="m 891.66165,1393.7075 -28.22142,66.0461"
     id="path129" /><path
     style="fill:none;stroke:#ff0000;stroke-width:7.55906"
     d="m 863.44023,1459.7536 v 0 0 l -652.97667,-2.6982"
     id="path130" /><path
     style="fill:none;stroke:#ff0000;stroke-width:7.55906"
     d="m 448,1974 -247.43003,3.8178"
     id="path131" /><path
     style="fill:none;stroke:#ff0000;stroke-width:7.55906"
     d="m 448,2083 -247.43003,2.7478"
     id="path132" /><path
     style="fill:none;stroke:#ff0000;stroke-width:7.55906"
     d="m 637.81032,2270.5199 -438.13977,1.4072"
     id="path133" /><path
     style="fill:none;stroke:#ff0000;stroke-width:7.55906"
     d="m 440.52753,2662.257 -139.22287,3.6147"
     id="path134"
     sodipodi:nodetypes="cc" /><path
     style="fill:none;stroke:#ff0000;stroke-width:7.55906"
     d="m 301.30466,2665.8717 -90.8411,2.6983"
     id="path135" /><path
     style="fill:none;stroke:#ff0000;stroke-width:7.55906"
     d="m 301.30466,2665.8717 v 94.4388 l 170.88922,-4.4971 -0.89942,0.8994"
     id="path136" /><path
     style="fill:none;stroke:#ff0000;stroke-width:7.55906"
     d="m 472.19388,2755.8134 191.30175,7.0064"
     id="path137" /><path
     style="fill:none;stroke:#ff0000;stroke-width:7.55906"
     d="m 440.52753,2662.257 31.66635,93.5564"
     id="path138" /><path
     style="fill:none;stroke:#ff0000;stroke-width:7.55906"
     d="m 665,2769.5 -1.23032,257.0379"
     id="path139" /><path
     style="fill:none;stroke:#0fff01;stroke-width:7.55906;stroke-opacity:1"
     d="m 1165.312,2775.3941 -4.1648,221.463"
     id="path140" /><path
     style="fill:none;stroke:#ff0000;stroke-width:7.55906"
     d="m 673.66327,1195.3251 -53.96502,81.8469 -417.32945,-1.7988"
     id="path141" /><path
     style="fill:none;stroke:#ff0000;stroke-width:7.55906"
     d="m 805.87755,956.97959 -367.86152,-6.29592 -47.66909,73.75223 -107.03061,5.3965 -3.59767,69.2551 h -80.94752"
     id="path142" /><path
     style="fill:none;stroke:#ff0000;stroke-width:7.55906"
     d="m 805.87755,956.97959 51.26676,-98.93586"
     id="path143" /><path
     style="fill:none;stroke:#ff0000;stroke-width:7.55906"
     d="m 857.14431,858.04373 v 0 L 1172.51,912.16775"
     id="path144"
     sodipodi:nodetypes="ccc" /><path
     style="fill:none;stroke:#ff0000;stroke-width:7.55906"
     d="M 857.14431,858.04373 198.77114,851.74781"
     id="path145" /><path
     style="fill:none;stroke:#ff0000;stroke-width:7.55906"
     d="M 857.14431,858.04373 814.87172,641.28426 724.03061,644.88192 688.05394,556.73907 197.87172,553.1414"
     id="path146" /><path
     style="fill:none;stroke:#ff0000;stroke-width:7.55906"
     d="m 1034.3294,362.46501 129.5161,78.24928"
     id="path147" /><path
     style="fill:none;stroke:#0eff00;stroke-width:7.55906;stroke-opacity:1"
     d="m 934.08806,1984.1416 50.91169,118.0869"
     id="path148" /><path
     style="fill:none;stroke:#ff0000;stroke-width:7.55906"
     d="m 1355.5237,2775.3941 97.965,0.3834 -0.9304,189.6001 167.2916,0.8994 -0.8745,-189.8518 97.8799,0.3831"
     id="path149" /><path
     style="fill:none;stroke:#0fff01;stroke-width:7.55906;stroke-opacity:1"
     d="m 2175,2343 236.3367,89.0233 220.3572,5.3965"
     id="path150" /><path
     style="fill:none;stroke:#ff0000;stroke-width:7.55906"
     d="m 2631.6939,2437.4198 -3.5977,-536.9519"
     id="path151" /><path
     style="fill:none;stroke:#ff0000;stroke-width:7.55906"
     d="m 2628.0962,1900.4679 331.8848,-0.8994"
     id="path152" /><path
     style="fill:none;stroke:#0fff01;stroke-width:7.55906;stroke-opacity:1"
     d="m 2631.6939,2437.4198 h 239.2449 l 89.0422,-76.4504 v -461.4009"
     id="path153" /><path
     style="fill:none;stroke:#ff0000;stroke-width:7.55906"
     d="m 2628.0962,1900.4679 -65.6574,1.7989 v -341.7785"
     id="path154" /><path
     style="fill:none;stroke:#ff0000;stroke-width:7.55906"
     d="m 2562.4388,1560.4883 393.0452,71.9534"
     id="path155" /><path
     style="fill:none;stroke:#ff0000;stroke-width:7.55906"
     d="M 2562.4388,1560.4883 2322,1538.5"
     id="path156" /><path
     style="fill:none;stroke:#ff0000;stroke-width:7.55906"
     d="m 1492.7024,912.16775 12.0221,-265.48699"
     id="path157" /><path
     style="fill:none;stroke:#ff0000;stroke-width:7.55906"
     d="M 1588.1618,910.04643 1568.5831,651.17784"
     id="path158" /><path
     style="fill:none;stroke:#ff0000;stroke-width:7.55906"
     d="M 1568.5831,651.17784 1753.863,625.09475"
     id="path159" /><path
     style="fill:none;stroke:#ff0000;stroke-width:7.55906"
     d="m 1753.863,625.09475 45.8702,-192.47522"
     id="path160" /><path
     style="fill:none;stroke:#ff0000;stroke-width:7.55906"
     d="m 1799.7332,432.61953 263.5292,-23.38484"
     id="path161" /><path
     style="fill:none;stroke:#ff0000;stroke-width:7.55906"
     d="m 1753.863,625.09475 84.5452,106.1312 94.4387,15.29008 124.1196,-77.34985"
     id="path162" /><path
     style="fill:none;stroke:#ff0000;stroke-width:7.55906"
     d="m 2063.2624,409.23469 -6.2959,259.93149"
     id="path163" /><path
     style="fill:none;stroke:#ff0000;stroke-width:7.55906"
     d="m 2056.9665,669.16618 175.3863,-7.19533"
     id="path164" /><path
     style="fill:none;stroke:#ff0000;stroke-width:7.55906"
     d="m 2056.9665,669.16618 8.0947,73.75219"
     id="path165" /><path
     style="fill:none;stroke:#ff0000;stroke-width:7.55906"
     d="m 2065.0612,742.91837 51.2668,-39.57435 98.0364,-7.19533"
     id="path166" /><path
     style="fill:none;stroke:#ff0000;stroke-width:7.55906"
     d="m 2214.3644,696.14869 17.9884,-34.17784"
     id="path167" /><path
     style="fill:none;stroke:#ff0000;stroke-width:7.55906"
     d="m 2232.3528,661.97085 118.723,-1.79884"
     id="path168" /><path
     style="fill:none;stroke:#ff0000;stroke-width:7.55906"
     d="m 2351.0758,660.17201 0.8994,-76.45044"
     id="path169" /><path
     style="fill:none;stroke:#ff0000;stroke-width:7.55906"
     d="m 2351.9752,583.72157 57.5627,0.89942"
     id="path170" /><path
     style="fill:none;stroke:#ff0000;stroke-width:7.55906"
     d="m 2409.5379,584.62099 v 104.33236 l 209.5641,5.3965"
     id="path171" /><path
     style="fill:none;stroke:#ff0000;stroke-width:7.55906"
     d="m 2409.5379,584.62099 207.7653,-4.49708"
     id="path172" /><path
     style="fill:none;stroke:#ff0000;stroke-width:7.55906"
     d="M 673.66327,1195.3251 805.87755,956.97959"
     id="path173" /><path
     style="fill:none;stroke:#ff0000;stroke-width:7.55906"
     d="m 2049.1955,946.10887 15.8657,-203.1905"
     id="path174" /><path
     style="fill:none;stroke:#0eff00;stroke-width:7.55906;stroke-opacity:1"
     d="m 1172.51,912.16775 h 320.1924"
     id="path175" /><path
     style="fill:none;stroke:#0eff00;stroke-width:7.55906;stroke-opacity:1"
     d="m 1172.51,912.16775 -34.7752,294.86355"
     id="path176" /><path
     style="fill:none;stroke:#ff0000;stroke-width:7.55906"
     d="m 814.87172,641.28426 3.59767,-277.02041"
     id="path177" /><path
     style="fill:none;stroke:#ff0000;stroke-width:7.55906"
     d="m 818.46939,364.26385 215.86001,-1.79884"
     id="path178" /><path
     style="fill:none;stroke:#ff0000;stroke-width:7.55906"
     d="m 1163.8455,440.71429 54.8644,-89.9417 69.2551,-25.18367"
     id="path179" /><path
     style="fill:none;stroke:#ff0000;stroke-width:7.55906"
     d="m 1287.965,325.58892 -26.9825,-17.98834 16.1895,-74.6516 27.8819,-39.57434"
     id="path180" /><path
     style="fill:none;stroke:#ff0000;stroke-width:7.55906"
     d="m 1287.965,325.58892 167.2916,-23.38484"
     id="path181" /><path
     style="fill:none;stroke:#ff0000;stroke-width:7.55906"
     d="m 1287.965,325.58892 54.8644,75.55102 74.6516,36.87609"
     id="path182" /><path
     style="fill:none;stroke:#ff0000;stroke-width:7.55906"
     d="m 1455.2566,302.20408 8.9941,133.1137"
     id="path183" /><path
     style="fill:none;stroke:#ff0000;stroke-width:7.55906"
     d="m 1163.8455,440.71429 -44.9709,62.05976 79.1487,88.14286 119.6225,22.48542 65.6574,31.47959"
     id="path184" /><path
     style="fill:none;stroke:#ff0000;stroke-width:7.55906"
     d="m 1383.3032,644.88192 70.1545,17.08893 51.2668,-15.29009"
     id="path185" /><path
     style="fill:none;stroke:#ff0000;stroke-width:7.55906"
     d="m 1504.7245,646.68076 63.8586,4.49708"
     id="path186" /><path
     style="fill:none;stroke:#ff0000;stroke-width:7.55906"
     d="m 1383.3032,644.88192 43.172,-80.94752"
     id="path187" /><path
     style="fill:none;stroke:#ff0000;stroke-width:7.55906"
     d="m 2214.3644,696.14869 54.8645,39.57434 31.4796,59.36152 2.6982,26.08309 44.0714,0.89942"
     id="path189" /><path
     style="fill:none;stroke:#ff0000;stroke-width:7.55906"
     d="m 2347.4781,822.06706 7.1954,99.83527 68.3557,4.49709"
     id="path190" /><path
     style="fill:none;stroke:#ff0000;stroke-width:7.55906"
     d="m 2423.0292,926.39942 -24.2843,104.33238"
     id="path191" /><path
     style="fill:none;stroke:#ff0000;stroke-width:7.55906"
     d="m 2398.7449,1030.7318 213.1618,4.4971"
     id="path192" /><path
     style="fill:none;stroke:#ff0000;stroke-width:7.55906"
     d="m 2423.0292,926.39942 177.1851,4.49708 22.4854,-24.28426"
     id="path193" /><path
     style="fill:none;stroke:#ff0000;stroke-width:7.55906"
     d="m 2617.3032,580.12391 1.7988,114.22594"
     id="path194" /><path
     style="fill:none;stroke:#ff0000;stroke-width:7.55906"
     d="m 2619.102,694.34985 3.5977,212.26239"
     id="path195" /><path
     style="fill:none;stroke:#ff0000;stroke-width:7.55906"
     d="m 2611.457,918.75437 0.4497,116.47453"
     id="path196" /><path
     style="fill:none;stroke:#ff0000;stroke-width:7.55906"
     d="m 2398.7449,1030.7318 -67.4563,57.5627 -163.6938,8.9941 L 2059,1081"
     id="path197" /><path
     style="fill:none;stroke:#ff0000;stroke-width:7.55906"
     d="m 2622.6997,906.61224 363.3644,-2.69825"
     id="path198" /><path
     style="fill:none;stroke:#ff0000;stroke-width:7.55906"
     d="m 2611.9067,1035.2289 6.2959,510.8688 -55.7638,14.3906"
     id="path199" /><path
     style="fill:none;stroke:#0fff01;stroke-width:7.55906;stroke-opacity:1"
     d="m 2959.981,1899.5685 -4.497,-267.1268"
     id="path200" /><path
     style="fill:none;stroke:#0fff01;stroke-width:7.55906;stroke-opacity:1"
     d="m 2955.484,1632.4417 30.5801,-728.52771"
     id="path201" /><path
     style="fill:none;stroke:#0fff01;stroke-width:7.55906;stroke-opacity:1"
     d="m 2986.0641,903.91399 1.7989,-416.43002"
     id="path202" /><path
     style="fill:none;stroke:#0fff01;stroke-width:7.55906;stroke-opacity:1"
     d="M 2987.863,487.48397 2620.0015,384.95044"
     id="path203" /><path
     style="fill:none;stroke:#ff0000;stroke-width:7.55906"
     d="m 2620.0015,384.95044 -2.6983,195.17347"
     id="path204" /><path
     style="fill:none;stroke:#ff0000;stroke-width:7.55906"
     d="m 2351.9752,583.72157 -1.7988,-206.86588"
     id="path205" /><path
     style="fill:none;stroke:#ff0000;stroke-width:7.55906"
     d="m 2350.1764,376.85569 -0.8994,-66.55686"
     id="path206" /><path
     style="fill:none;stroke:#ff0000;stroke-width:7.55906"
     d="M 2350.1764,376.85569 2062.363,371.45918"
     id="path207" /><path
     style="fill:none;stroke:#ff0000;stroke-width:7.55906"
     d="m 1417.481,438.01603 46.7697,-2.69825"
     id="path208" /><path
     style="fill:none;stroke:#ff0000;stroke-width:7.55906"
     d="m 1417.481,438.01603 8.9942,125.91837"
     id="path209" /><path
     style="fill:none;stroke:#ff0000;stroke-width:7.55906"
     d="m 1426.4752,563.9344 80.9475,1.79884"
     id="path210" /><path
     style="fill:none;stroke:#ff0000;stroke-width:7.55906"
     d="m 1507.4227,565.73324 -2.6982,80.94752"
     id="path211" /><path
     style="fill:none;stroke:#ff0000;stroke-width:7.55906"
     d="m 1571.2813,569.3309 -2.6982,81.84694"
     id="path212" /><path
     style="fill:none;stroke:#ff0000;stroke-width:7.55906"
     d="m 1571.2813,569.3309 86.3441,-0.89941 -0.8995,-141.20846"
     id="path213" /><path
     style="fill:none;stroke:#ff0000;stroke-width:7.55906"
     d="m 1656.7259,427.22303 45.8703,-35.97667 v 0 l 97.137,41.37317"
     id="path214" /><path
     style="fill:none;stroke:#ff0000;stroke-width:7.55906"
     d="m 1702.5962,391.24636 -39.5743,-60.26094"
     id="path215" /><path
     style="fill:none;stroke:#ff0000;stroke-width:7.55906"
     d="m 1663.0219,330.98542 90.8411,-21.586 45.8702,-70.15452"
     id="path216" /><path
     style="fill:none;stroke:#ff0000;stroke-width:7.55906"
     d="m 2062.363,371.45918 2.6982,-105.23177"
     id="path217" /><path
     style="fill:none;stroke:#ff0000;stroke-width:7.55906"
     d="m 2062.363,371.45918 0.8994,37.77551"
     id="path218" /><path
     style="fill:none;stroke:#ff0000;stroke-width:7.55906"
     d="m 1656.7259,427.22303 -46.7696,-0.89941"
     id="path219" /><path
     style="fill:none;stroke:#ff0000;stroke-width:7.55906"
     d="m 1609.9563,426.32362 v 0 l -1.7989,-141.20846 54.8645,45.87026"
     id="path220" /><path
     style="fill:none;stroke:#ff0000;stroke-width:7.55906"
     d="m 1608.1574,285.11516 1.7989,-63.8586"
     id="path221" /><path
     style="fill:none;stroke:#ff0000;stroke-width:7.55906"
     d="m 1455.2566,302.20408 1.7988,-80.0481"
     id="path222" /><path
     style="fill:none;stroke:#0fff01;stroke-width:7.55906;stroke-opacity:1"
     d="m 1457.0554,222.15598 152.9009,-0.89942"
     id="path223" /><path
     style="fill:none;stroke:#ff0000;stroke-width:7.55906"
     d="m 1464.2507,435.31778 145.7056,-8.99416"
     id="path224" /><path
     style="fill:none;stroke:#0fff01;stroke-width:7.55906;stroke-opacity:1"
     d="M 1457.0554,222.15598 1305.0539,193.37464"
     id="path225" /><path
     style="fill:none;stroke:#ff0000;stroke-width:7.55906"
     d="m 1034.3294,362.46501 10.793,-183.48104"
     id="path226" /><path
     style="fill:none;stroke:#ff0000;stroke-width:7.55906"
     d="m 818.46939,364.26385 6.29592,-221.25656"
     id="path227" /><path
     style="fill:none;stroke:#ff0000;stroke-width:7.55906"
     d="m 818.46939,364.26385 -208.66473,-1.79884 v 0"
     id="path228" /><path
     style="fill:none;stroke:#ff0000;stroke-width:7.55906"
     d="m 609.80466,362.46501 -2.69825,-218.5583"
     id="path229" /><path
     style="fill:none;stroke:#ff0000;stroke-width:7.55906"
     d="M 609.80466,362.46501 418.22886,361.5656"
     id="path230" /><path
     style="fill:none;stroke:#ff0000;stroke-width:7.55906"
     d="M 418.22886,361.5656 417.32945,138.5102"
     id="path231" /><path
     style="fill:none;stroke:#ff0000;stroke-width:7.55906"
     d="m 418.22886,361.5656 -208.66472,7.19533"
     id="path232" /><path
     style="fill:none;stroke:#0fff01;stroke-width:7.55906;stroke-opacity:1"
     d="m 1161.1472,2996.8571 -497.37752,29.6808"
     id="path233" /><path
     style="fill:none;stroke:#0fff01;stroke-width:7.55906;stroke-opacity:1"
     d="M 663.76968,3026.5379 193.37464,3045.4257 210.46356,2668.57"
     id="path234" /><path
     style="fill:none;stroke:#0fff01;stroke-width:7.55906;stroke-opacity:1"
     d="M 210.46356,2668.57 199.67055,2271.9271"
     id="path235" /><path
     style="fill:none;stroke:#0fff01;stroke-width:7.55906;stroke-opacity:1"
     d="m 199.67055,2271.9271 0.89942,-186.1793"
     id="path236" /><path
     style="fill:none;stroke:#0fff01;stroke-width:7.55906;stroke-opacity:1"
     d="m 200.56997,2085.7478 v -107.93"
     id="path237" /><path
     style="fill:none;stroke:#0fff01;stroke-width:7.55906;stroke-opacity:1"
     d="m 200.56997,1977.8178 9.89359,-520.7624"
     id="path238" /><path
     style="fill:none;stroke:#0fff01;stroke-width:7.55906;stroke-opacity:1"
     d="M 210.46356,1457.0554 202.3688,1275.3732"
     id="path239" /><path
     style="fill:none;stroke:#0fff01;stroke-width:7.55906;stroke-opacity:1"
     d="m 202.3688,1275.3732 -3.59766,-176.2857"
     id="path240" /><path
     style="fill:none;stroke:#0fff01;stroke-width:7.55906;stroke-opacity:1"
     d="M 198.77114,1099.0875 V 851.74781"
     id="path241" /><path
     style="fill:none;stroke:#0fff01;stroke-width:7.55906;stroke-opacity:1"
     d="M 198.77114,851.74781 197.87172,553.1414"
     id="path242" /><path
     style="fill:none;stroke:#0fff01;stroke-width:7.55906;stroke-opacity:1"
     d="M 197.87172,553.1414 209.56414,368.76093"
     id="path243" /><path
     style="fill:none;stroke:#0fff01;stroke-width:7.55906;stroke-opacity:1"
     d="M 209.56414,368.76093 207.76531,141.20845 417.32945,138.5102"
     id="path244" /><path
     style="fill:none;stroke:#0fff01;stroke-width:7.55906;stroke-opacity:1"
     d="m 417.32945,138.5102 189.77696,5.39651"
     id="path245" /><path
     style="fill:none;stroke:#0fff01;stroke-width:7.55906;stroke-opacity:1"
     d="m 607.10641,143.90671 217.6589,-0.89942"
     id="path246" /><path
     style="fill:none;stroke:#0fff01;stroke-width:7.55906;stroke-opacity:1"
     d="m 824.76531,143.00729 220.35709,35.97668"
     id="path247" /><path
     style="fill:none;stroke:#0fff01;stroke-width:7.55906;stroke-opacity:1"
     d="m 1045.1224,178.98397 259.9315,14.39067"
     id="path248" /><path
     style="fill:none;stroke:#0fff01;stroke-width:7.55906;stroke-opacity:1"
     d="m 1609.9563,221.25656 189.7769,17.98834"
     id="path249" /><path
     style="fill:none;stroke:#0fff01;stroke-width:7.55906;stroke-opacity:1"
     d="m 1799.7332,239.2449 265.328,26.98251"
     id="path250" /><path
     style="fill:none;stroke:#0fff01;stroke-width:7.55906;stroke-opacity:1"
     d="m 2065.0612,266.22741 265.328,44.97084 18.8878,-0.89942"
     id="path251" /><path
     style="fill:none;stroke:#0fff01;stroke-width:7.55906;stroke-opacity:1"
     d="m 2349.277,310.29883 270.7245,74.65161"
     id="path252" /></g>

  <g
   id="places_optional"
   inkscape:groupmode="layer"
   inkscape:label="places_optional" />
</svg>
